<?xml version="1.0" encoding="UTF-8"?><svg xmlns="http://www.w3.org/2000/svg" xmlns:xlink="http://www.w3.org/1999/xlink" viewBox="0 0 64 64"><defs><style>.cls-1,.cls-2,.cls-3{fill:none;}.cls-2{isolation:isolate;}.cls-4{fill:#fff;}.cls-5{fill:#231b33;}.cls-3{clip-path:url(#clippath);}.cls-6{fill:url(#_未命名漸層_206);mix-blend-mode:screen;}</style><clipPath id="clippath"><rect class="cls-1" x="-115.87" y="200.43" width="1920" height="1080"/></clipPath><radialGradient id="_未命名漸層_206" cx="-13.37" cy="484.93" fx="-13.37" fy="484.93" r="626.5" gradientUnits="userSpaceOnUse"><stop offset="0" stop-color="#c0daff"/><stop offset="1" stop-color="#000"/></radialGradient></defs><g class="cls-2"><g id="_圖層_3"><g class="cls-3"><circle class="cls-6" cx="-13.37" cy="484.93" r="626.5"/></g></g><g id="_圖層_1"><circle class="cls-5" cx="32" cy="32" r="32"/><path class="cls-4" d="m23.97,20.48c.09-.51-.02-.91-.31-1.21-.3-.3-.9-.48-1.8-.54-.54-.03-.81-.25-.81-.68,0-.15.01-.3.04-.45.03-.15.07-.33.13-.54,1.11.09,2.17.17,3.17.22,1,.06,1.87.09,2.59.09h6.21c2.13,0,4.1.26,5.92.77,1.82.51,3.38,1.28,4.7,2.3,1.32,1.02,2.35,2.3,3.08,3.85.73,1.55,1.1,3.35,1.1,5.42,0,2.52-.5,4.82-1.49,6.89-.99,2.07-2.36,3.85-4.1,5.33-1.74,1.49-3.79,2.64-6.14,3.47-2.36.83-4.9,1.24-7.63,1.24h-6.71c-.63,0-1.5.03-2.61.09-1.11.06-2.18.14-3.2.23-.03-.12-.06-.25-.09-.38-.03-.13-.04-.28-.04-.43,0-.18.04-.34.13-.5.09-.15.29-.25.59-.31.93-.15,1.6-.35,2.03-.61.42-.25.69-.68.81-1.28l4.41-22.95Zm18.09,9.68c0-1.95-.24-3.62-.72-5-.48-1.38-1.19-2.5-2.14-3.38-.95-.87-2.1-1.51-3.47-1.91s-2.92-.61-4.66-.61h-1.58l-4.55,24.12c-.09.51-.08.85.02,1.04.1.18.37.27.79.27h1.94c1.92,0,3.74-.28,5.47-.83,1.72-.55,3.25-1.42,4.57-2.59s2.37-2.67,3.15-4.5c.78-1.83,1.17-4.04,1.17-6.62Z"/></g></g></svg>